<svg xmlns="http://www.w3.org/2000/svg" xmlns:xlink="http://www.w3.org/1999/xlink" width="1077" zoomAndPan="magnify" viewBox="0 0 807.75 360.749986" height="481" preserveAspectRatio="xMidYMid meet" version="1.0"><defs><g/><clipPath id="e563b02881"><path d="M 357 89 L 446.433594 89 L 446.433594 180 L 357 180 Z M 357 89 " clip-rule="nonzero"/></clipPath><clipPath id="e855f710a3"><rect x="0" width="447" y="0" height="227"/></clipPath></defs><path fill="#e84855" d="M 21.925781 121.925781 L 153.699219 15.128906 C 172.492188 0.00390625 199.988281 2.753906 215.117188 21.546875 C 230.242188 40.335938 227.261719 67.839844 208.46875 82.964844 L 76.703125 189.53125 C 63.179688 200.527344 55.847656 216.570312 55.390625 232.613281 L 15.515625 183.339844 L 15.285156 183.109375 C 0.160156 164.550781 3.140625 137.046875 21.929688 121.921875 Z M 21.925781 121.925781 " fill-opacity="1" fill-rule="evenodd"/><path fill="#e84855" d="M 147.738281 277.304688 C 166.296875 262.175781 193.800781 265.15625 208.921875 283.945312 C 224.050781 302.511719 221.300781 330.011719 202.507812 345.136719 C 183.714844 360.261719 156.214844 357.511719 141.089844 338.71875 C 125.964844 319.925781 128.941406 292.429688 147.734375 277.300781 Z M 147.738281 277.304688 " fill-opacity="1" fill-rule="evenodd"/><path fill="#e84855" d="M 153.699219 145.070312 C 172.492188 129.714844 199.757812 132.695312 214.886719 151.488281 C 230.242188 170.050781 227.261719 197.550781 208.46875 212.675781 L 140.179688 268.136719 C 126.429688 279.136719 119.324219 295.410156 119.554688 311.90625 L 78.992188 261.71875 L 78.761719 261.71875 C 63.636719 242.925781 66.617188 215.425781 85.179688 200.300781 L 85.410156 200.300781 Z M 153.699219 145.070312 " fill-opacity="1" fill-rule="evenodd"/><g transform="matrix(1, 0, 0, 1, 308, 66)"><g clip-path="url(#e855f710a3)"><g fill="#e84855" fill-opacity="1"><g transform="translate(0.562878, 178.846338)"><g><path d="M 54.359375 -96.296875 C 51.710938 -96.296875 49.46875 -95.375 47.625 -93.53125 C 45.78125 -91.570312 44.859375 -89.269531 44.859375 -86.625 L 44.859375 -77.140625 L 62.640625 -77.140625 L 62.640625 -52.984375 L 44.859375 -52.984375 L 44.859375 0 L 20.703125 0 L 20.703125 -53.15625 L 5.171875 -53.15625 L 5.171875 -77.140625 L 20.703125 -77.140625 L 20.703125 -96.296875 C 20.703125 -102.960938 23.0625 -108.597656 27.78125 -113.203125 C 32.5 -117.921875 38.191406 -120.28125 44.859375 -120.28125 L 62.640625 -120.28125 L 62.640625 -96.296875 Z M 54.359375 -96.296875 "/></g></g></g><g fill="#e84855" fill-opacity="1"><g transform="translate(66.829249, 178.846338)"><g><path d="M 69.03125 -89.21875 L 93.1875 -89.21875 L 93.1875 0 L 69.03125 0 L 69.03125 -10.015625 C 64.082031 -3.566406 56.601562 -0.34375 46.59375 -0.34375 C 34.394531 -0.226562 23.925781 -4.484375 15.1875 -13.109375 C 6.445312 -21.742188 2.015625 -32.210938 1.890625 -44.515625 C 1.773438 -56.710938 6.035156 -67.179688 14.671875 -75.921875 C 23.296875 -84.671875 33.765625 -89.101562 46.078125 -89.21875 C 56.203125 -89.21875 63.851562 -85.9375 69.03125 -79.375 Z M 61.78125 -29.328125 C 66.03125 -33.585938 68.15625 -38.765625 68.15625 -44.859375 C 68.15625 -51.078125 65.972656 -56.253906 61.609375 -60.390625 C 57.234375 -64.765625 52.113281 -66.835938 46.25 -66.609375 C 40.144531 -66.609375 34.96875 -64.476562 30.71875 -60.21875 C 26.457031 -55.96875 24.328125 -50.789062 24.328125 -44.6875 C 24.328125 -38.707031 26.515625 -33.53125 30.890625 -29.15625 C 35.148438 -24.90625 40.328125 -22.78125 46.421875 -22.78125 C 52.628906 -23.007812 57.75 -25.191406 61.78125 -29.328125 Z M 61.78125 -29.328125 "/></g></g></g><g fill="#e84855" fill-opacity="1"><g transform="translate(163.640283, 178.846338)"><g><path d="M 113.890625 -89.046875 C 125.859375 -89.160156 135.578125 -85.59375 143.046875 -78.34375 C 151.109375 -70.75 155.140625 -60.109375 155.140625 -46.421875 L 155.140625 0 L 132.703125 0 L 132.703125 -44.859375 C 132.703125 -46.585938 132.414062 -48.546875 131.84375 -50.734375 C 131.03125 -53.378906 129.9375 -55.738281 128.5625 -57.8125 C 124.875 -63.675781 119.46875 -66.609375 112.34375 -66.609375 C 104.75 -66.609375 99.222656 -63.675781 95.765625 -57.8125 C 94.503906 -55.625 93.585938 -53.148438 93.015625 -50.390625 C 92.554688 -48.429688 92.328125 -46.472656 92.328125 -44.515625 L 92.328125 0 L 69.71875 0 L 69.71875 -44.859375 C 69.71875 -46.585938 69.429688 -48.546875 68.859375 -50.734375 C 68.160156 -53.378906 67.125 -55.738281 65.75 -57.8125 C 61.945312 -63.675781 56.539062 -66.609375 49.53125 -66.609375 C 41.820312 -66.609375 36.238281 -63.675781 32.78125 -57.8125 C 31.519531 -55.625 30.601562 -53.148438 30.03125 -50.390625 C 29.5625 -48.429688 29.328125 -46.472656 29.328125 -44.515625 L 29.328125 0 L 5.171875 0 L 5.171875 -89.21875 L 29.328125 -89.21875 L 29.328125 -79.890625 C 34.972656 -85.992188 42.222656 -89.046875 51.078125 -89.046875 C 64.078125 -89.273438 74.601562 -84.269531 82.65625 -74.03125 L 89.90625 -80.765625 C 96.695312 -86.285156 104.691406 -89.046875 113.890625 -89.046875 Z M 113.890625 -89.046875 "/></g></g></g><g fill="#e84855" fill-opacity="1"><g transform="translate(322.403455, 178.846338)"><g><path d="M 29.328125 -119.9375 L 29.328125 0 L 5.171875 0 L 5.171875 -119.9375 Z M 29.328125 -119.9375 "/></g></g></g><g clip-path="url(#e563b02881)"><g fill="#e84855" fill-opacity="1"><g transform="translate(355.364085, 178.846338)"><g><path d="M 46.078125 -88.875 C 58.378906 -88.988281 68.847656 -84.726562 77.484375 -76.09375 C 86.222656 -67.351562 90.59375 -56.882812 90.59375 -44.6875 C 90.707031 -32.382812 86.453125 -21.914062 77.828125 -13.28125 C 69.203125 -4.539062 58.789062 -0.113281 46.59375 0 C 34.28125 0.113281 23.753906 -4.140625 15.015625 -12.765625 C 6.265625 -21.398438 1.890625 -31.867188 1.890625 -44.171875 C 1.773438 -56.484375 6.035156 -66.953125 14.671875 -75.578125 C 23.296875 -84.328125 33.765625 -88.757812 46.078125 -88.875 Z M 61.78125 -28.984375 C 66.03125 -33.242188 68.15625 -38.421875 68.15625 -44.515625 C 68.15625 -50.503906 65.972656 -55.679688 61.609375 -60.046875 C 57.234375 -64.191406 52.054688 -66.265625 46.078125 -66.265625 C 40.085938 -66.265625 34.96875 -64.132812 30.71875 -59.875 C 26.457031 -55.394531 24.328125 -50.21875 24.328125 -44.34375 C 24.328125 -38.363281 26.515625 -33.1875 30.890625 -28.8125 C 35.148438 -24.5625 40.328125 -22.4375 46.421875 -22.4375 C 52.628906 -22.664062 57.75 -24.847656 61.78125 -28.984375 Z M 61.78125 -28.984375 "/></g></g></g></g></g></g></svg>